<?xml version='1.0' encoding='UTF-8'?>
<svg xmlns="http://www.w3.org/2000/svg" xmlns:xlink="http://www.w3.org/1999/xlink" version="1.1" id="Layer_1" x="0px" y="0px" width="100%" viewBox="0 0 1024 1024" enable-background="new 0 0 1024 1024" xml:space="preserve">
<defs><filter id="glow" x="-50%" y="-50%" width="200%" height="200%">
  <feGaussianBlur in="SourceGraphic" stdDeviation="2.5" result="blur"/>
  <feMerge>
    <feMergeNode in="blur"/>
    <feMergeNode in="SourceGraphic"/>
  </feMerge>
</filter><style>
@keyframes breathe {
  0%, 100% {
    stroke: black;
    stroke-opacity: 0.02;
  }
  50% {
    stroke: #a0c8ff; /* Soft bluish-silver */
    stroke-opacity: 0.5;
  }
}

.breathing-path {
  animation: breathe 8s ease-in-out infinite;
  filter: url(#glow);
  stroke-width: 0.6;
  fill: none;
}
</style></defs><path fill="#000000" opacity="1.000000" stroke="black" d=" M751.416626,1025.000000   C745.847107,1016.485840 738.104675,1010.274719 731.343506,1003.228027   C715.322937,986.530762 699.018616,970.103943 682.723389,953.672424   C652.239502,922.933228 621.692383,892.256714 591.149048,861.576477   C570.115295,840.448486 549.044739,819.357117 527.987732,798.252319   C526.020386,796.280640 524.937805,794.028442 524.968506,791.132019   C525.104370,778.319153 525.150513,765.505127 525.168945,752.691467   C525.172791,750.037781 526.829285,748.463989 528.486084,746.803833   C551.433350,723.809509 574.387451,700.821960 597.310547,677.803467   C607.177856,667.895081 617.016357,657.957153 626.780701,647.947632   C629.215820,645.451477 632.018555,644.819397 635.353516,644.824036   C665.845093,644.865967 696.337036,644.744629 726.828247,644.859558   C731.497620,644.877197 734.869751,643.501831 738.233521,640.104797   C769.883728,608.141785 801.869995,576.510986 833.464661,544.493591   C858.152649,519.475159 882.308960,493.932678 906.913025,468.830414   C929.180664,446.111908 951.729980,423.669434 974.173035,401.123138   C975.568787,399.720978 977.121704,398.475311 978.802124,396.978210   C979.266174,399.286652 977.506226,399.999176 976.545044,401.028229   C952.093628,427.207642 926.662292,452.436951 901.739563,478.158966   C866.616638,514.408325 831.402283,550.564209 795.707520,586.251282   C776.400696,605.553833 757.094849,624.857666 737.888306,644.259827   C735.541748,646.630310 733.021851,647.382996 729.857788,647.362061   C717.384094,647.279480 704.909485,647.328186 691.923462,648.030090   C762.613037,721.358032 835.206360,792.674316 906.221863,866.904724   C902.472107,867.820435 901.424133,866.063416 900.312622,864.847473   C872.553589,834.479309 842.960754,805.896851 814.179871,776.527100   C777.694153,739.294861 740.768738,702.493652 704.050171,665.489441   C699.123901,660.524841 694.218567,655.534424 689.464417,650.406738   C687.512390,648.301453 685.477722,647.262085 682.529846,647.283997   C666.865845,647.400452 651.200256,647.386230 635.535889,647.299622   C632.658752,647.283752 630.542969,648.172974 628.496582,650.246643   C606.729858,672.304077 584.905090,694.304504 563.032837,716.257446   C552.688599,726.639771 542.282043,736.962952 531.741333,747.144836   C528.750854,750.033508 527.352905,753.191895 527.386414,757.291931   C527.472168,767.774292 527.503418,778.259888 527.319397,788.740051   C527.252014,792.577698 528.709534,795.406738 531.308594,798.018250   C570.908875,837.808105 610.470886,877.636230 650.057312,917.439880   C684.111145,951.680542 718.189392,985.897034 752.232056,1020.148743   C753.514282,1021.438843 754.536804,1022.987061 755.840149,1024.707520   C754.611084,1025.000000 753.222229,1025.000000 751.416626,1025.000000  z" class="breathing-path" stroke-opacity="0.02"/>
<path fill="#000000" opacity="1.000000" stroke="black" d=" M681.625000,1.000000   C681.975037,13.299911 681.926697,25.599829 681.930359,37.899731   C681.936523,58.557804 681.898010,79.216476 682.057800,99.873505   C682.096130,104.825340 680.793335,108.747635 677.165466,112.355492   C655.078796,134.320328 633.259460,156.554367 611.114441,178.459579   C607.035461,182.494415 604.879517,186.417801 605.146484,192.346848   C605.633057,203.153519 605.096252,214.002441 605.347473,224.825363   C605.453552,229.396301 603.979614,232.839172 600.670959,235.825150   C597.336914,238.834015 594.327881,242.210785 590.923401,245.131454   C587.835693,247.780396 586.995422,250.925186 587.012146,254.851074   C587.155823,288.501953 587.125366,322.153534 587.249939,355.804535   C587.261963,359.055359 586.259277,361.440613 583.939636,363.727356   C572.081970,375.416870 560.407227,387.291840 548.553833,398.985748   C546.231506,401.276825 545.088745,403.679596 545.314209,406.934784   C545.509399,409.753143 545.607605,412.625580 545.293640,415.423035   C544.271362,424.533356 545.839294,432.535004 553.704590,438.428436   C555.948059,440.109467 556.383057,442.827362 556.364014,445.651520   C556.281921,457.812469 556.329163,469.974304 556.329285,482.135803   C556.329346,485.609406 556.329285,489.082977 556.329285,492.844208   C561.123535,488.318481 565.565002,484.239746 569.854004,480.006500   C571.121033,478.755981 570.677185,476.847717 570.683350,475.201141   C570.712463,467.371094 570.818665,459.538727 570.662659,451.711884   C570.598511,448.492584 571.507080,445.965576 573.719971,443.621521   C579.892517,437.082977 585.867981,430.332001 592.706421,424.485962   C596.200134,421.499298 597.675354,418.054230 597.616638,413.596588   C597.513672,405.769257 597.694702,397.937256 597.525269,390.112183   C597.451721,386.717804 598.320374,384.096222 600.893311,381.721649   C605.171448,377.773254 608.978394,373.311462 613.287109,369.400024   C616.674072,366.325378 617.745667,362.832855 617.736389,358.345093   C617.627441,305.699951 617.735352,253.054276 617.583374,200.409348   C617.568176,195.146179 619.190491,191.486069 622.969177,187.779495   C649.480774,161.773972 675.729187,135.500305 702.112793,109.363884   C705.225098,106.280769 706.882446,103.008881 706.867310,98.391045   C706.762085,66.240334 706.920166,34.088760 706.996948,1.468732   C707.444458,1.000000 707.888916,1.000000 708.666687,1.000000   C709.128174,12.985756 709.340149,24.971331 709.366028,36.957306   C709.411255,57.948269 709.252930,78.940102 709.399597,99.930031   C709.427551,103.932480 708.165771,106.830429 705.372375,109.601028   C678.406433,136.346878 651.562439,163.215836 624.574524,189.939438   C621.660339,192.825043 620.166626,195.698212 620.175659,199.934998   C620.285461,251.247131 620.046875,302.560730 620.374756,353.870941   C620.428772,362.325989 618.821045,369.199890 612.088501,374.510468   C610.785339,375.538452 609.661621,376.790649 608.396484,377.870758   C602.736511,382.703125 598.859253,388.042450 599.940918,396.284912   C600.735596,402.340302 599.778992,408.604645 600.111328,414.748352   C600.361267,419.369934 598.638916,422.641174 595.371582,425.660187   C588.646118,431.874542 582.003784,438.178619 576.045166,445.175720   C574.069641,447.495514 573.206604,449.840759 573.259521,452.857880   C573.396851,460.685669 573.201721,468.519257 573.338501,476.347076   C573.392212,479.418304 572.365295,481.792450 570.280823,483.943481   C548.623474,506.292450 527.125977,528.797913 504.885162,550.573975   C503.648163,551.785095 502.604401,553.415771 500.235504,553.235901   C500.146118,550.622070 502.064240,549.574219 503.356415,548.262085   C518.539490,532.844177 533.682190,517.384460 549.048279,502.150421   C552.809143,498.421875 554.080872,494.475037 553.941711,489.256897   C553.573364,475.438538 553.661926,461.604614 553.783875,447.778809   C553.815430,444.198944 553.066650,441.265717 550.293640,438.905029   C544.302917,433.805176 543.194641,427.345062 542.512024,419.558167   C541.315796,405.914429 545.709534,396.120178 555.890930,387.440857   C564.860107,379.794800 572.694641,370.824646 581.126343,362.536987   C583.530640,360.173737 584.591736,357.710846 584.580200,354.192322   C584.470825,320.712219 584.639465,287.231232 584.545532,253.751022   C584.533752,249.556000 585.520386,246.039703 588.863586,243.692993   C600.877563,235.259888 604.687134,223.805267 602.846252,209.554565   C601.978394,202.836716 602.821960,195.909958 602.668945,189.082825   C602.580933,185.152771 603.858765,182.145782 606.674561,179.325699   C629.388550,156.577103 651.938171,133.664246 674.677307,110.940979   C677.748840,107.871529 679.045715,104.732498 679.028809,100.392563   C678.901001,67.574646 678.984131,34.755898 679.000671,1.468707   C679.750000,1.000000 680.500000,1.000000 681.625000,1.000000  z" class="breathing-path" stroke-opacity="0.02"/>
<path fill="#000000" opacity="1.000000" stroke="black" d=" M735.625000,1.000000   C736.023743,30.158606 736.048096,59.317211 736.070679,88.475815   C736.075928,95.307892 736.034363,102.140343 736.095215,108.971893   C736.123657,112.154457 735.071960,114.687576 732.757751,116.970490   C711.410156,138.029709 690.130798,159.158234 668.837402,180.272400   C663.398010,185.665985 658.075134,191.181671 652.513245,196.445374   C649.384216,199.406738 648.125977,202.685638 648.135376,207.041153   C648.240723,255.865677 648.069580,304.691071 648.293640,353.514740   C648.324036,360.141113 646.118774,364.879761 641.449341,369.257721   C633.918457,376.318481 626.784119,383.800629 619.406555,391.027435   C617.114380,393.272766 616.044434,395.790253 616.090698,399.022980   C616.212219,407.519379 615.882202,416.030151 616.257996,424.511871   C616.462646,429.130341 614.908447,432.446045 611.690613,435.509857   C604.571655,442.288025 597.700623,449.327148 590.559021,456.080780   C587.422791,459.046661 585.568054,462.274872 586.378906,466.652100   C588.285217,476.943146 583.472229,483.933655 576.236572,490.790588   C554.487793,511.401184 533.757629,533.105042 511.644318,553.303162   C503.283478,560.939941 500.550659,568.734497 501.153320,579.403625   C501.857025,591.861694 501.258179,604.390747 501.337952,616.888306   C501.357300,619.919678 500.417267,622.240295 498.270569,624.443848   C475.261566,648.061707 452.354187,671.778625 429.350983,695.402222   C427.086884,697.727417 426.153992,700.205688 426.168121,703.427185   C426.256592,723.589905 426.077576,743.754639 426.295471,763.915344   C426.349823,768.945007 424.962677,772.636536 421.325928,776.251038   C401.594330,795.861816 382.128204,815.739563 362.538818,835.493835   C358.999817,839.062561 357.198517,842.909058 357.219574,848.277405   C357.440430,904.600586 357.369171,960.924805 357.401611,1017.248779   C357.402954,1019.570679 357.630554,1021.892517 357.876373,1024.607178   C357.250000,1025.000000 356.500000,1025.000000 355.375000,1025.000000   C354.963165,965.181335 354.972961,905.362549 354.806335,845.544250   C354.792053,840.417236 357.412018,837.146057 360.595825,833.909668   C380.104919,814.077881 399.560028,794.192139 419.210114,774.500916   C422.410095,771.294312 423.800232,768.065308 423.755859,763.534424   C423.556824,743.207092 423.740417,722.876343 423.609344,702.547913   C423.586182,698.961853 424.600159,696.382874 427.157898,693.759644   C450.063019,670.268127 472.778992,646.592224 495.649780,623.067017   C497.947540,620.703491 498.810425,618.240112 498.791138,615.056946   C498.698273,599.727478 498.827576,584.396301 498.672119,569.067749   C498.626801,564.598694 499.917358,561.090027 503.177002,557.950684   C521.527161,540.277771 539.787598,522.511353 558.028137,504.725006   C565.658875,497.284271 573.137146,489.687408 580.746704,482.224670   C582.806885,480.204285 583.848816,477.943756 583.418274,475.065552   C581.905701,464.954041 584.200012,456.659790 592.977417,450.125244   C599.065857,445.592590 604.034912,439.557861 609.512817,434.203094   C612.377686,431.402618 613.879578,428.248413 613.735168,424.006317   C613.440552,415.351593 613.745117,406.678223 613.610779,398.015472   C613.560791,394.789398 614.503113,392.277222 616.814026,390.000702   C625.112732,381.825714 633.225281,373.460968 641.563538,365.327179   C644.511841,362.451202 645.747131,359.365875 645.736816,355.180206   C645.614380,305.523773 645.725586,255.866730 645.559875,206.210571   C645.543884,201.410507 647.185547,198.061462 650.448730,194.838028   C676.514526,169.089752 702.441833,143.201172 728.552246,117.498421   C732.130737,113.975815 733.758484,110.349823 733.729126,105.253700   C733.542358,72.762817 733.652100,40.270283 733.629028,7.778316   C733.627625,5.790321 733.325623,3.802544 733.081787,1.407334   C733.750000,1.000000 734.500000,1.000000 735.625000,1.000000  z" class="breathing-path" stroke-opacity="0.02"/>
<path fill="#000000" opacity="1.000000" stroke="black" d=" M643.600037,1.000000   C642.986145,3.395905 643.327515,5.928547 643.322388,8.407830   C643.288269,24.904095 643.361206,41.400856 643.248657,57.896435   C643.228027,60.927788 643.753052,63.454693 646.192505,65.422173   C656.180298,73.477592 660.229919,83.787926 658.220886,96.542801   C657.785461,99.306870 657.776550,102.260773 658.227722,105.019882   C659.906250,115.284271 655.542297,122.520409 648.327515,129.533295   C631.497681,145.892197 615.424988,163.027527 598.871887,179.675613   C595.435791,183.131409 593.966858,186.702820 594.125977,191.599518   C594.461182,201.919662 594.130920,212.259720 594.263306,222.589157   C594.307007,226.002060 593.484314,228.811157 590.786499,230.974731   C590.398376,231.285980 590.106812,231.724045 589.703979,232.009460   C579.019165,239.580002 576.609253,249.808411 577.100403,262.653809   C578.167786,290.565918 577.522461,318.542572 577.658081,346.492432   C577.678223,350.643677 576.020203,353.591064 573.039246,356.466583   C561.177185,367.909210 549.565491,379.611389 537.857544,391.213959   C535.981445,393.073151 535.159119,395.265930 535.186523,397.947754   C535.287048,407.778137 535.340271,417.610565 535.243347,427.440552   C535.210266,430.798950 536.841125,433.140289 539.070068,435.235443   C544.182434,440.041046 546.622253,445.492615 546.163513,452.906677   C545.454895,464.360626 545.305786,475.939697 546.161804,487.372650   C546.904663,497.294312 541.421753,502.588989 534.763611,507.821289   C531.989685,506.325592 532.752197,503.914520 532.741638,501.929962   C532.657104,486.100250 532.492859,470.266724 532.772583,454.441772   C532.859863,449.501465 531.365723,445.950836 527.821472,442.615784   C520.908936,436.111298 514.378845,429.202271 507.578796,422.575226   C505.511627,420.560638 504.646027,418.388458 504.658051,415.504272   C504.729645,398.341736 504.722687,381.178223 504.595917,364.016113   C504.570679,360.599060 505.559387,357.894958 508.017029,355.556610   C511.875641,351.885193 515.430359,347.868408 519.488098,344.440887   C522.388855,341.990631 523.064453,339.206940 523.054749,335.682617   C522.996338,314.533478 523.046265,293.383881 523.124573,272.234650   C523.146179,266.408905 523.326843,260.581635 523.547607,254.759354   C523.755188,249.284637 522.058777,244.806976 517.875610,241.033249   C512.939026,236.579788 508.403564,231.683472 503.654083,227.019989   C500.470734,223.894272 498.533783,220.597610 498.602600,215.689224   C498.900055,194.480179 498.649872,194.560287 483.334320,179.772186   C470.879517,167.746323 458.687531,155.448685 446.279755,143.373489   C443.683319,140.846634 442.530334,138.163391 442.824646,134.508774   C443.144592,130.535202 443.356232,126.453346 442.810486,122.530640   C441.718719,114.682945 444.952728,109.068863 450.904053,104.558952   C455.198792,101.304413 456.898407,97.258018 456.767853,91.664284   C456.282898,70.887474 456.287811,50.099037 456.135620,29.314774   C456.088989,22.945467 456.128357,16.575529 456.128357,9.998385   C459.787872,10.559579 459.232269,12.344174 459.233734,13.709483   C459.263367,41.203251 459.207489,68.697273 459.322571,96.190605   C459.339661,100.269714 457.066315,102.938972 454.331543,104.933212   C446.674957,110.516594 445.101807,117.793739 445.039551,126.957726   C444.979553,135.778137 447.632050,141.866882 453.927155,147.749954   C468.158661,161.049896 481.710602,175.074051 495.756775,188.576996   C499.930023,192.588837 502.016998,196.873978 501.394989,202.691284   C501.007385,206.316101 501.658417,210.055634 501.233093,213.671906   C500.604126,219.019470 502.661194,222.780014 506.489502,226.324142   C512.224182,231.633224 517.501465,237.433701 523.049500,242.948486   C524.951172,244.838730 525.573608,246.843262 525.576416,249.604477   C525.606750,279.242645 524.829468,308.885406 525.869446,338.517334   C525.970642,341.399170 524.655518,343.182739 522.804626,344.972992   C518.614929,349.025391 514.531372,353.188049 510.316315,357.213440   C508.119537,359.311401 507.238556,361.687286 507.257996,364.760529   C507.362396,381.256439 507.381683,397.754303 507.215790,414.249329   C507.181854,417.621613 508.563293,419.908661 510.774414,422.092987   C517.765137,428.999084 524.622498,436.042664 531.710327,442.846771   C534.341187,445.372406 535.289917,448.092743 535.258118,451.699127   C535.124390,466.860992 535.246094,482.025085 535.273315,497.188385   C535.276550,498.972015 535.273743,500.755646 535.273743,503.066376   C542.205627,499.614807 543.442932,494.057373 543.416443,487.853638   C543.361694,475.036987 543.205322,462.219696 543.286438,449.403961   C543.319153,444.241577 540.832336,440.477814 537.264526,437.335663   C533.707092,434.202484 532.467529,430.543945 532.604492,425.844177   C532.881042,416.354309 532.771118,406.848969 532.620056,397.353210   C532.568665,394.125763 533.481812,391.696320 535.828613,389.395142   C547.840942,377.616699 559.649963,365.630676 571.686890,353.877899   C574.092896,351.528687 574.769714,349.025848 574.765320,345.871094   C574.725098,316.710846 574.767029,287.550476 574.786316,258.390137   C574.791809,250.083267 572.929993,241.197113 581.911621,235.323547   C581.995911,235.005249 581.971863,235.027328 581.971863,235.027328   C587.594727,231.472977 592.149414,227.553299 591.782654,219.792328   C591.311768,209.828018 591.860596,199.819290 591.588440,189.840118   C591.469910,185.496368 592.785889,182.260971 595.795593,179.190735   C614.077393,160.541443 632.169678,141.706207 650.491394,123.096642   C654.121338,119.409653 655.977722,115.608635 655.753662,110.319702   C655.387634,101.680199 655.549316,93.011551 655.718201,84.359688   C655.781494,81.119354 655.073608,78.286469 652.544373,76.358429   C642.129944,68.419609 639.825134,57.925144 640.364319,45.260323   C640.977234,30.864902 641.297485,16.344978 639.963257,1.454748   C641.066711,1.000000 642.133362,1.000000 643.600037,1.000000  z" class="breathing-path" stroke-opacity="0.02"/>
<path fill="#000000" opacity="1.000000" stroke="black" d=" M684.399963,1025.000000   C680.042114,1017.868408 673.536499,1013.048096 667.937439,1007.425598   C640.567322,979.941101 613.108398,952.545044 585.705078,925.093689   C559.947693,899.291138 534.237915,873.441040 508.445038,847.673950   C506.517273,845.748169 505.740479,843.782776 505.746338,841.069519   C505.824463,804.744812 505.855286,768.419678 505.725800,732.095276   C505.713196,728.558960 506.984680,726.073425 509.302032,723.739685   C525.845276,707.079041 542.336670,690.366760 558.902039,673.728210   C577.350159,655.198669 595.913879,636.783875 614.289490,618.182983   C617.458191,614.975464 620.758850,613.595520 625.298462,613.622498   C653.958069,613.792969 682.619385,613.656677 711.279419,613.785950   C715.272766,613.804016 718.069580,612.493896 720.892578,609.666321   C759.026367,571.469482 797.309509,533.421753 835.497437,495.278900   C863.302368,467.506683 890.986572,439.613678 918.791748,411.841644   C935.164551,395.488342 951.652832,379.250458 968.133484,363.005615   C970.106079,361.061371 972.357422,359.399902 974.971802,358.078064   C973.147095,362.576050 969.549744,365.681732 966.318115,368.914429   C948.421448,386.817627 930.440918,404.639160 912.328186,422.323853   C883.744934,450.231689 856.187500,479.163513 827.424622,506.896973   C809.933777,523.761963 793.132751,541.341064 775.960510,558.538147   C757.391907,577.133545 738.731262,595.637146 720.170654,614.240540   C717.995728,616.420532 715.437256,616.365784 712.770569,616.364197   C684.110474,616.347717 655.449707,616.420898 626.790894,616.220886   C622.260620,616.189270 618.942627,617.462952 615.765991,620.667542   C584.227417,652.483826 552.960938,684.587219 520.725464,715.684753   C511.230743,724.844360 507.614349,733.960022 508.016876,746.976807   C508.964081,777.607910 508.376343,808.287781 508.284088,838.947571   C508.273773,842.369507 509.259857,844.840088 511.722107,847.289673   C543.356934,878.760193 574.899414,910.323669 606.439941,941.888977   C632.329407,967.798828 658.193176,993.734314 684.032837,1019.693848   C685.426147,1021.093689 686.490173,1022.821167 687.853760,1024.697998   C686.933289,1025.000000 685.866638,1025.000000 684.399963,1025.000000  z" class="breathing-path" stroke-opacity="0.02"/>
<path fill="#000000" opacity="1.000000" stroke="black" d=" M612.416626,1025.000000   C607.917786,1017.741150 601.237610,1012.818237 595.574402,1007.019653   C577.898438,988.921143 559.969421,971.069702 542.129517,953.131409   C522.639893,933.534302 503.183990,913.903015 483.595856,894.404724   C480.780884,891.602722 479.575470,888.721619 479.583649,884.729492   C479.692444,831.575012 479.730865,778.420105 479.540314,725.266113   C479.521881,720.127747 481.190765,716.454834 484.626221,712.963318   C504.839569,692.420349 524.866150,671.692566 545.188965,651.259155   C549.721619,646.701843 552.094360,642.068298 551.797058,635.447571   C551.296875,624.305969 551.728821,613.124817 551.618530,601.961792   C551.588745,598.948730 552.329346,596.597290 554.531128,594.386658   C570.984497,577.867554 587.338196,561.249207 603.705322,544.644470   C605.445312,542.879211 607.305054,542.347900 609.910828,542.368530   C635.567322,542.572021 661.225708,542.533508 686.883545,542.573792   C689.727417,542.578247 691.931213,541.411682 693.923889,539.389038   C707.603027,525.504272 721.415710,511.750183 735.009338,497.782684   C737.799133,494.916168 740.675232,493.623535 744.658752,493.679047   C756.820068,493.848541 768.986389,493.645844 781.148682,493.776367   C784.415833,493.811401 786.817200,492.730072 789.089539,490.446686   C816.703613,462.698914 844.589661,435.226929 871.714172,406.986725   C892.015991,385.849854 912.995361,365.363708 933.691711,344.606415   C934.688965,343.606232 935.440613,342.048279 937.412598,342.497528   C938.486938,344.727753 936.686340,345.782166 935.470276,347.004456   C908.691833,373.918793 881.758606,400.680908 855.155823,427.767609   C833.802734,449.509033 812.361450,471.155670 790.630981,492.519775   C787.763489,495.338898 784.826477,496.472870 780.891479,496.409027   C769.397278,496.222443 757.895264,496.469940 746.403015,496.230499   C742.212036,496.143188 739.140259,497.512909 736.265686,500.455475   C722.653320,514.390137 708.865173,528.153320 695.271973,542.106506   C693.232483,544.199951 691.199585,545.198975 688.310669,545.186157   C662.318542,545.071228 636.325745,545.089661 610.334167,544.909119   C607.872070,544.891968 606.251038,545.698181 604.660095,547.315247   C589.130005,563.099915 573.625366,578.910400 557.978027,594.578247   C555.154907,597.405090 554.032410,600.391418 554.096558,604.339966   C554.291382,616.333984 554.058044,628.335327 554.279907,640.328491   C554.347168,643.962585 553.274658,646.603943 550.751892,649.176453   C529.419312,670.929260 508.251740,692.844055 486.864136,714.542236   C483.454895,718.001038 481.998993,721.504272 482.013641,726.400696   C482.168732,778.221069 482.177460,830.042297 481.990662,881.862488   C481.971588,887.148376 483.599640,890.847290 487.291992,894.529968   C518.182861,925.340454 548.913086,956.312012 579.668091,987.258484   C591.986084,999.653015 604.244995,1012.106140 616.765381,1024.766357   C615.611084,1025.000000 614.222229,1025.000000 612.416626,1025.000000  z" class="breathing-path" stroke-opacity="0.02"/>
<path fill="#000000" opacity="1.000000" stroke="black" d=" M381.375000,1025.000000   C382.312408,992.700500 381.811279,960.374023 381.244171,928.087158   C381.028992,915.835144 383.771088,907.070068 392.867432,898.437927   C416.300262,876.200745 438.478699,852.647461 461.555847,830.025513   C466.833649,824.851807 468.687256,819.322632 468.671600,812.399109   C468.601196,781.239807 468.704956,750.080017 468.585022,718.921021   C468.570953,715.276611 469.666290,712.650696 472.227966,710.117615   C492.479065,690.092773 512.586304,669.922363 532.855103,649.915527   C535.890442,646.919434 537.129089,643.925598 537.248108,639.491272   C537.601440,626.326477 536.888794,613.187439 536.961304,600.036621   C536.983704,595.981567 538.043640,592.605286 540.938965,589.669861   C558.249023,572.119995 575.534607,554.545532 592.723755,536.877563   C595.436157,534.089539 598.995422,533.873718 601.992188,534.216980   C609.754944,535.106018 614.340454,530.604309 619.030823,525.807556   C635.102417,509.371613 651.227905,492.988068 667.229614,476.484497   C669.620178,474.018982 672.057922,472.768768 675.558167,473.014069   C679.199951,473.269257 682.982971,472.374969 686.526245,472.996979   C694.734497,474.437836 700.101807,470.764252 705.626831,465.159454   C747.026733,423.162109 788.693970,381.428192 830.280334,339.614594   C854.358582,315.404785 878.440430,291.198578 902.528625,266.998718   C903.530579,265.992126 904.306458,264.574615 906.559448,264.632355   C905.993347,267.894196 903.457825,269.422485 901.621155,271.285278   C875.890747,297.380890 850.151062,323.467712 824.309692,349.453461   C793.410645,380.525177 762.393982,411.480042 731.467468,442.524597   C722.190308,451.837128 712.971008,461.210144 703.879517,470.703217   C700.811218,473.907074 697.595398,476.115692 692.966736,475.345459   C678.645630,472.962250 668.015564,477.810455 658.345520,489.107422   C644.844238,504.880157 629.422729,519.008301 614.837830,533.854797   C611.217224,537.540283 606.544983,536.992249 602.173523,536.655151   C598.851807,536.398987 596.427551,537.121460 594.133240,539.469543   C577.255615,556.742859 560.360474,573.999817 543.352234,591.144226   C540.132080,594.390137 539.307434,597.847229 539.461914,602.361755   C539.826050,612.999207 538.288696,623.823914 539.728149,634.268616   C541.224304,645.125244 535.619507,651.033386 528.945190,657.532166   C514.270874,671.820435 499.961975,686.483826 485.485352,700.975525   C481.369904,705.095276 477.164215,709.125000 473.053650,713.249512   C471.356384,714.952576 470.447571,716.958252 470.513245,719.517334   C471.248322,748.158081 471.119141,776.799927 470.600891,805.443726   C470.519806,809.924255 470.609528,814.410095 470.551117,818.893555   C470.495911,823.132629 468.982666,825.996521 466.098999,828.884644   C440.327667,854.696045 414.731750,880.682800 388.919373,906.452942   C385.216156,910.149963 383.755829,913.846680 383.765930,919.177124   C383.816376,945.826965 384.357300,972.480469 383.570068,999.132568   C383.324860,1007.435181 383.849487,1015.760620 384.010864,1024.537842   C383.250000,1025.000000 382.500000,1025.000000 381.375000,1025.000000  z" class="breathing-path" stroke-opacity="0.02"/>
<path fill="#000000" opacity="1.000000" stroke="black" d=" M262.640442,165.999390   C262.643494,152.166336 262.514648,138.831406 262.708893,125.501190   C262.775635,120.920082 261.086914,117.522186 257.851105,114.529823   C240.370514,98.364502 222.948044,82.136337 205.466202,65.972382   C200.043625,60.958603 195.683380,55.073673 191.425446,49.117622   C184.851517,39.921982 178.430664,30.616800 171.970612,21.340162   C171.620010,20.836731 171.505890,20.168650 170.872452,18.497585   C174.972672,21.126467 176.730957,24.450092 179.061218,27.219017   C186.254913,35.766869 191.921478,45.412243 198.573532,54.342278   C206.797638,65.382744 218.029083,73.428558 227.800171,82.930710   C238.664734,93.496284 249.796921,103.790588 260.953094,114.050201   C264.843231,117.627693 265.213806,122.011246 265.209961,126.795113   C265.178864,165.626114 265.272217,204.457306 265.165924,243.288010   C265.154480,247.475021 266.507355,250.352692 269.510590,253.275391   C283.114746,266.514709 296.490784,279.989960 309.848419,293.479767   C312.250305,295.905396 314.713928,297.295258 318.218750,296.852936   C322.264893,296.342316 325.600067,297.615021 328.432526,300.817688   C332.399536,305.303162 336.844543,309.362701 340.893219,313.780273   C343.271759,316.375549 346.121216,318.514618 349.454102,318.326447   C358.413940,317.820404 363.791687,323.295959 369.309357,328.960571   C384.766479,344.829163 400.353149,360.571747 415.769257,376.479828   C418.661346,379.464142 422.161774,379.886902 425.819458,379.935242   C429.264862,379.980713 431.491760,381.489441 433.884399,383.959045   C446.865509,397.357880 460.117096,410.494720 473.276855,423.720459   C486.552795,437.062958 499.810822,450.423431 513.131592,463.721008   C514.809875,465.396332 515.404175,467.243286 515.423401,469.532104   C515.556091,485.353729 515.715149,501.175354 515.955627,516.995667   C516.019897,521.224060 514.819763,524.568298 511.605347,527.626099   C504.851990,534.050354 498.625946,541.026184 491.939026,547.524170   C488.704529,550.667297 487.264709,554.104187 487.301514,558.590149   C487.450500,576.750183 487.268646,594.913635 487.508087,613.071838   C487.580200,618.541443 486.217377,622.612976 482.134735,626.695129   C441.838257,666.986511 401.811401,707.547485 361.639221,747.963501   C359.087219,750.530945 357.944885,753.230408 358.037415,756.822144   C358.230499,764.317444 357.562469,771.879028 358.321869,779.303589   C359.139832,787.301025 355.861908,792.740662 350.499969,798.097229   C332.121582,816.457275 314.080719,835.154602 295.839294,853.652466   C279.347870,870.375854 262.732483,886.976990 246.228104,903.687622   C233.589890,916.483887 221.038406,929.365845 208.451080,942.212341   C206.595886,944.105652 204.846130,946.133362 201.404053,946.302307   C205.301224,942.020264 209.056412,937.598206 213.117844,933.478088   C247.626053,898.470825 282.205963,863.534302 316.728546,828.541199   C328.777863,816.327576 340.674774,803.963257 352.769348,791.795044   C354.990082,789.560791 355.707520,787.186096 355.681244,784.200012   C355.597656,774.700989 355.827454,765.196228 355.579987,755.702942   C355.469208,751.452515 357.163269,748.448364 359.998138,745.594788   C386.416321,719.001953 412.778534,692.353516 439.167664,665.731812   C453.237000,651.538513 467.283997,637.322510 481.449707,623.225952   C483.881989,620.805542 485.022095,618.192871 485.044617,614.833496   C485.177307,595.026489 485.529022,575.218933 485.414917,555.413879   C485.393158,551.636169 486.600128,549.034546 489.020050,546.603149   C495.954193,539.635986 502.843658,532.622864 509.867920,525.747620   C512.555420,523.117126 513.720154,520.190735 513.676819,516.407410   C513.526123,503.242920 513.551819,490.075531 513.621521,476.909821   C513.652710,471.015350 512.108215,466.261322 507.590851,461.830444   C483.687164,438.384552 460.129272,414.586090 436.453033,390.908295   C435.157074,389.612213 433.647888,388.457092 432.632294,386.967499   C430.269135,383.501465 427.322693,381.947540 422.986328,382.194214   C419.206238,382.409241 416.153198,380.454193 413.397186,377.644958   C396.015778,359.927765 378.442535,342.398834 361.052399,324.690155   C358.544189,322.136017 355.560242,321.708954 352.436127,321.449341   C346.735199,320.975616 341.904205,319.096222 338.006653,314.620148   C334.404358,310.483154 330.094788,306.960419 326.511322,302.809265   C324.191467,300.121918 321.707184,298.888824 318.280579,299.327698   C313.985901,299.877777 310.854950,298.295105 307.750732,295.113800   C294.492859,281.526703 280.989838,268.175751 267.419830,254.898499   C263.956757,251.510117 262.523834,247.909790 262.564728,242.995880   C262.776825,217.498611 262.646362,191.998505 262.640442,165.999390  z" class="breathing-path" stroke-opacity="0.02"/>
<path fill="#000000" opacity="1.000000" stroke="black" d=" M280.416626,572.408691   C300.261719,552.434448 319.900787,532.752014 339.399780,512.931885   C341.584991,510.710663 343.757385,509.662323 346.806610,509.677185   C361.636383,509.749573 376.466766,509.709167 391.296906,509.698608   C393.487366,509.697052 395.549652,509.786743 397.279388,511.542297   C412.238556,526.724731 427.189240,541.916565 442.283966,556.963562   C445.164185,559.834717 446.037811,563.045349 445.971344,566.855957   C445.745178,579.824646 445.476746,592.794067 445.451843,605.763672   C445.444977,609.333801 444.553619,612.179565 442.017914,614.733032   C425.236755,631.631958 408.506409,648.581421 391.805267,665.559509   C389.065094,668.345093 385.985504,669.509155 382.015015,669.456787   C368.368073,669.276855 354.716949,669.438843 341.067932,669.371338   C337.929047,669.355774 334.968292,669.784546 332.845154,672.197266   C330.512878,674.847717 327.721161,675.458191 324.361115,675.388489   C316.532776,675.226074 308.697540,675.250305 300.867828,675.372375   C297.646393,675.422546 295.236603,674.404785 292.932159,672.061279   C274.833160,653.655579 256.552063,635.428711 238.492676,616.984680   C235.194290,613.616028 231.751862,612.028870 227.035141,612.279907   C221.219849,612.589294 215.358551,612.071960 209.548248,612.424622   C205.130814,612.692749 202.114090,611.053833 199.067673,608.000854   C173.896835,582.776367 148.615479,557.661804 123.298637,532.583496   C99.158478,508.670746 74.606476,485.167358 51.580589,460.152710   C50.855724,459.365234 49.695431,458.772766 49.910255,456.813965   C54.922932,461.353760 59.849255,465.468536 64.383385,469.977722   C95.082420,500.508087 125.689270,531.131165 156.345551,561.704529   C171.200089,576.518860 186.152161,591.236023 200.922073,606.133972   C203.457718,608.691589 205.964325,610.069397 209.641968,609.889832   C215.127686,609.621948 220.683655,610.270569 226.122528,609.699219   C232.760773,609.001892 237.335495,611.577087 241.808945,616.216248   C258.906250,633.946838 276.358429,651.334778 293.535614,668.989319   C296.197510,671.725098 298.934631,673.083923 302.728424,672.953186   C308.220428,672.763916 313.727905,672.765442 319.220917,672.936890   C324.309021,673.095642 329.119080,673.102356 332.898712,668.721313   C334.769196,666.553345 337.806793,666.966858 340.466797,666.962463   C353.962952,666.940186 367.460052,666.854309 380.954712,666.992920   C384.909637,667.033569 387.920441,665.794617 390.697113,662.967957   C406.456879,646.924988 422.306335,630.969604 438.195160,615.054260   C441.431183,611.812866 443.104919,608.264221 443.082733,603.536194   C443.027954,591.880432 443.283203,580.219299 443.642242,568.567444   C443.780365,564.085510 442.455109,560.486816 439.287201,557.347290   C424.857300,543.046997 410.473633,528.699829 396.116516,514.326477   C394.566895,512.775085 392.840332,512.272278 390.731140,512.278687   C376.067963,512.323303 361.404541,512.334106 346.741425,512.288147   C344.565430,512.281311 343.068665,513.108215 341.544159,514.652771   C319.194580,537.296387 296.728394,559.825134 274.433868,582.522522   C271.605652,585.401855 269.796295,585.808411 266.791992,582.792297   C248.216888,564.144165 229.506531,545.630554 210.783478,527.130554   C208.905167,525.274658 208.637527,523.167419 208.642563,520.768738   C208.669479,507.938507 208.439026,495.103546 208.735611,482.280334   C208.841415,477.705505 207.431381,474.336426 204.297180,471.208344   C166.805511,433.790039 129.359329,396.326172 91.913979,358.861481   C86.261597,353.206177 80.655289,347.504364 75.073891,341.778992   C74.086594,340.766266 72.698212,339.922760 72.783188,337.316956   C75.431107,339.470795 77.826141,341.123901 79.875702,343.129913   C117.235168,379.696198 154.052780,416.804810 190.755173,454.028564   C196.367676,459.720764 201.892059,465.514618 207.759171,470.934570   C210.488327,473.455719 211.451248,476.120789 211.405853,479.695831   C211.242996,492.524384 211.382126,505.356934 211.198090,518.184937   C211.144257,521.936707 212.166138,524.761230 214.915588,527.464905   C232.017441,544.282104 248.949432,561.271973 265.968231,578.173889   C267.361481,579.557556 268.520050,581.273560 271.004486,582.171326   C273.971619,579.092041 277.070496,575.876038 280.416626,572.408691  z" class="breathing-path" stroke-opacity="0.02"/>
<path fill="#000000" opacity="1.000000" stroke="black" d=" M419.740540,650.738953   C391.853241,679.866943 363.856812,708.390930 335.660248,736.725464   C299.246002,773.317749 263.147247,810.223999 226.899307,846.981934   C225.811646,848.084900 225.100952,849.948730 222.913193,849.310852   C221.861786,847.738403 223.058578,846.876526 223.969116,845.955750   C245.391068,824.289673 266.824066,802.634521 288.241577,780.963989   C320.429321,748.395813 352.679657,715.889099 384.762634,683.217957   C405.528625,662.071228 425.901550,640.537109 446.773438,619.496826   C451.818604,614.410889 453.504364,608.885986 453.463989,602.108948   C453.371704,586.627869 453.421326,571.142578 453.709961,555.664551   C453.804199,550.611389 452.159729,546.794861 448.701202,543.192200   C434.630493,528.535400 419.998871,514.443115 405.728851,499.991455   C401.659149,495.869934 397.591949,494.124664 391.749298,494.188110   C363.427826,494.495605 335.101227,494.302338 306.776947,494.413452   C303.224915,494.427368 300.445160,493.599945 297.867310,490.999542   C283.929840,476.939697 269.791748,463.078796 255.842392,449.030579   C233.661179,426.692261 211.501434,404.331421 189.501495,381.815094   C184.340500,376.533020 178.347839,371.933838 174.292068,365.369202   C176.752731,364.209595 177.661758,366.009277 178.713333,367.069763   C198.999557,387.528381 219.237885,408.034515 239.509888,428.507263   C259.428772,448.623383 279.389526,468.698059 299.286133,488.836151   C301.436890,491.013000 303.781525,491.779510 306.851196,491.767639   C336.507935,491.652863 366.165527,491.741821 395.822052,491.603363   C399.489349,491.586243 402.171631,492.797241 404.651245,495.300079   C420.352600,511.148499 436.116730,526.934692 451.833405,542.768005   C454.614410,545.569702 456.244690,548.772034 456.207764,552.980774   C456.045532,571.473328 456.035553,589.968445 456.160278,608.461365   C456.183472,611.897766 455.194000,614.458679 452.796570,616.885071   C441.794342,628.020386 430.915985,639.278076 419.740540,650.738953  z" class="breathing-path" stroke-opacity="0.02"/>
<path fill="#000000" opacity="1.000000" stroke="black" d=" M406.042847,473.499176   C428.994965,496.099548 451.617859,518.475037 474.362518,540.726013   C477.082123,543.386597 478.324249,546.142029 478.302429,549.939026   C478.186615,570.100708 478.172394,590.264038 478.332245,610.425110   C478.361145,614.068359 477.276031,616.772583 474.732758,619.271790   C457.382507,636.321655 439.970795,653.311951 422.824738,670.565857   C396.404968,697.151794 369.605347,723.362366 343.694550,750.454468   C341.045380,753.224548 338.584930,756.375610 334.536713,758.496826   C334.390045,755.339966 336.419739,754.118591 337.789795,752.697571   C369.820862,719.474060 402.438202,686.830200 435.236755,654.366882   C447.074677,642.649963 458.931488,630.950195 470.931610,619.400513   C474.413422,616.049377 475.848755,612.505981 475.770874,607.551025   C475.472229,588.560425 475.612244,569.561584 475.736938,550.566833   C475.759521,547.130127 474.676666,544.569031 472.231842,542.182556   C449.824707,520.310181 427.470764,498.383087 405.169617,476.402710   C403.133148,474.395508 400.833466,474.208252 398.303406,474.213104   C387.805664,474.233276 377.303284,474.053131 366.812225,474.322113   C361.761353,474.451660 358.044434,472.798889 354.475708,469.210236   C332.869690,447.483795 311.045776,425.974243 289.347473,404.339233   C261.525421,376.598358 233.736404,348.824280 206.000610,320.997223   C204.298553,319.289551 201.342560,318.441986 200.922333,315.002472   C203.881226,314.948456 205.248444,316.685883 206.709579,318.146088   C238.755203,350.170685 270.748932,382.247284 302.836517,414.229767   C320.881897,432.216034 339.104156,450.024811 357.171448,467.989227   C359.348846,470.154236 361.707764,470.981293 364.702972,471.174835   C376.193085,471.917236 387.689606,471.431519 399.180725,471.614532   C401.486847,471.651245 403.907837,471.292511 406.042847,473.499176  z" class="breathing-path" stroke-opacity="0.02"/>
<path fill="#000000" opacity="1.000000" stroke="black" d=" M310.264893,357.734924   C351.310242,398.485718 392.099060,438.993103 433.416901,480.025879   C429.842651,481.187866 428.768616,479.194885 427.485138,477.926727   C395.036957,445.865540 362.524567,413.868591 330.210480,381.672638   C301.560394,353.127289 273.128754,324.362640 244.614441,295.681183   C233.938431,284.942535 223.291153,274.175201 212.659973,263.392151   C211.446442,262.161285 209.715988,261.145294 210.224487,257.637238   C243.885330,291.321869 276.946838,324.406677 310.264893,357.734924  z" class="breathing-path" stroke-opacity="0.02"/>
<path fill="#000000" opacity="1.000000" stroke="black" d=" M582.008423,234.995422   C579.093323,234.441330 579.778320,232.161469 579.773376,230.247482   C579.739807,217.252579 579.666992,204.257309 579.744080,191.262970   C579.761230,188.370316 578.796143,186.200073 576.779175,184.187225   C552.627686,160.085419 528.510803,135.948853 504.414490,111.791901   C501.475739,108.845734 498.718506,105.718994 495.860382,102.691757   C493.449829,100.138611 492.493774,97.194122 492.532501,93.623474   C492.675262,80.463264 492.481537,67.299248 492.643799,54.139492   C492.696381,49.875084 491.624237,46.663147 488.362427,43.577656   C480.506378,36.146191 473.108856,28.229551 465.541473,20.493847   C464.755768,19.690657 463.684601,19.008619 463.927521,17.299067   C466.026672,16.907906 467.103394,18.537949 468.288116,19.717760   C476.312988,27.709145 484.243744,35.795826 492.324005,43.730389   C494.712433,46.075741 495.202606,48.789677 495.185425,51.899632   C495.112732,65.061737 495.304688,78.228348 495.011810,91.384674   C494.897675,96.510864 496.784851,100.265160 500.256012,103.730515   C525.598999,129.031281 550.813904,154.460815 576.252991,179.664291   C580.590454,183.961594 582.644531,188.424423 582.430481,194.614517   C581.975830,207.761276 582.162231,220.930237 582.028809,234.558716   C581.971863,235.027328 581.995911,235.005249 582.008423,234.995422  z" class="breathing-path" stroke-opacity="0.02"/>
<path fill="#000000" opacity="1.000000" stroke="black" d=" M250.484314,645.509888   C244.341278,639.374329 238.347595,633.582153 232.610962,627.545654   C229.595261,624.372375 225.869675,625.050903 222.326752,625.040161   C199.330154,624.970581 176.333099,625.071045 153.336227,625.059326   C123.175568,625.044006 93.014931,624.973694 62.854267,624.933594   C53.914955,624.921692 44.975613,624.931763 36.012070,624.262817   C37.238056,622.276917 38.907764,622.642273 40.400639,622.641418   C102.724197,622.605957 165.047775,622.608643 227.371323,622.564026   C230.020493,622.562134 232.143677,623.234131 234.082825,625.161377   C252.154404,643.122131 270.292450,661.016052 288.404541,678.936218   C289.335663,679.857544 290.492767,680.663513 290.424927,682.525146   C288.067505,683.244568 286.936737,681.317200 285.666138,680.074951   C273.994934,668.663879 262.375153,657.200134 250.484314,645.509888  z" class="breathing-path" stroke-opacity="0.02"/>
<path fill="#000000" opacity="1.000000" stroke="black" d=" M198.013947,648.346680   C189.365143,648.357544 181.211731,648.428101 173.059692,648.351440   C170.337646,648.325806 168.280060,649.374207 166.424255,651.236694   C154.314621,663.389954 142.193680,675.532043 130.030914,687.632019   C128.089279,689.563660 126.514061,692.107056 122.191597,692.661316   C124.804962,688.318298 128.034378,685.584839 130.898941,682.676941   C141.533173,671.881775 152.418839,661.333679 163.012253,650.499390   C166.266296,647.171387 169.659103,645.606628 174.417587,645.653687   C195.245453,645.859741 216.076950,645.765564 236.906403,645.648865   C239.285294,645.635559 240.958206,646.308105 242.625214,647.938843   C255.961853,660.984985 269.382141,673.945679 282.731049,686.979370   C283.948578,688.168152 285.696747,689.227417 285.262177,691.410461   C283.785553,692.391174 283.023682,691.257263 282.239960,690.498169   C270.154633,678.792603 257.730988,667.405151 246.185181,655.188477   C241.265442,649.982910 235.928818,648.068726 229.465439,648.543091   C219.123215,649.302002 208.828400,647.872009 198.013947,648.346680  z" class="breathing-path" stroke-opacity="0.02"/>
<path fill="#000000" opacity="1.000000" stroke="black" d=" M186.049728,752.940186   C172.795486,752.943115 160.032425,752.943115 147.269363,752.943115   C147.241760,752.453857 147.214142,751.964600 147.186523,751.475342   C150.419479,749.537292 154.126343,749.939941 157.705490,749.936157   C186.336533,749.905945 214.978699,749.478088 243.592270,750.187866   C252.703033,750.413879 258.561188,746.938354 264.107452,740.719849   C268.303589,736.015137 273.047302,731.797119 277.577271,727.393311   C278.283325,726.706970 279.123322,726.091431 280.333160,726.672729   C281.462341,728.490173 279.816437,729.273804 278.833038,730.241150   C272.309723,736.656921 265.615540,742.907898 259.296021,749.517517   C256.834808,752.091614 254.167664,752.875671 250.892670,752.876160   C229.442078,752.879578 207.991501,752.913330 186.049728,752.940186  z" class="breathing-path" stroke-opacity="0.02"/>
<path fill="#000000" opacity="1.000000" stroke="black" d=" M293.613892,689.166809   C292.231262,689.019531 291.116547,689.130859 290.857635,687.181030   C315.976044,687.181030 341.007568,687.181030 366.039062,687.181030   C366.051971,687.746643 366.064880,688.312256 366.077789,688.877869   C342.082733,689.681030 318.047882,688.848633 293.613892,689.166809  z" class="breathing-path" stroke-opacity="0.02"/>
<path fill="#000000" opacity="1.000000" stroke="black" d=" M108.016098,470.976898   C116.359779,480.444397 125.903343,488.333984 133.675507,497.840668   C133.146576,498.353851 132.617645,498.867035 132.088699,499.380219   C120.810608,487.913147 109.532501,476.446075 97.654282,464.368835   C101.795998,464.611877 101.795998,464.611877 108.016098,470.976898  z" class="breathing-path" stroke-opacity="0.02"/>
<path fill="#000000" opacity="1.000000" stroke="black" d=" M116.295700,240.845795   C120.277832,251.226944 124.159363,261.233887 128.040894,271.240845   C127.617226,271.407745 127.193558,271.574646 126.769890,271.741516   C119.603386,256.498657 113.545914,240.800964 107.918648,224.926880   C108.342178,224.698685 108.765709,224.470490 109.189240,224.242294   C110.430618,226.877686 111.741043,229.483276 112.894173,232.156738   C114.074730,234.893738 115.101189,237.697205 116.295700,240.845795  z" class="breathing-path" stroke-opacity="0.02"/>
<path fill="#000000" opacity="1.000000" stroke="black" d=" M763.858032,246.856400   C782.869080,228.150452 801.598999,209.668182 820.395874,191.254242   C822.849670,188.850494 823.736816,186.192932 823.696655,182.783707   C823.543396,169.789154 823.690002,156.791245 823.575378,143.795914   C823.547302,140.609924 824.276978,137.947144 826.529602,135.640335   C849.338135,112.283264 872.076660,88.856575 895.841736,66.458305   C896.777527,65.576355 897.814697,64.802032 899.150208,64.319733   C893.612976,71.690948 887.267456,78.297516 880.769836,84.793671   C863.570923,101.988708 846.490417,119.302124 829.300659,136.506332   C827.000061,138.808792 826.125244,141.366730 826.147034,144.560593   C826.235657,157.556015 826.062683,170.554214 826.256653,183.547333   C826.313660,187.366516 825.134277,190.148682 822.440063,192.808563   C795.056763,219.842453 767.757812,246.961853 740.443481,274.065552   C731.578857,282.861755 722.816772,291.763397 713.837952,300.441040   C711.220337,302.970795 710.157349,305.641022 710.177307,309.244843   C710.281799,328.072113 710.013489,346.903015 710.276794,365.726990   C710.369141,372.326874 708.481506,377.041809 703.531799,381.851013   C683.105164,401.697693 663.217163,422.100739 643.222168,442.389130   C609.320557,476.788239 575.506165,511.273254 540.957275,545.027649   C533.809204,552.011353 526.865540,559.206238 519.647461,566.115417   C516.548828,569.081482 515.148987,572.232544 515.205322,576.641541   C515.424500,593.800293 515.245605,610.963928 515.260071,628.125732   C515.262573,631.034485 515.006226,633.764099 512.771301,635.957458   C502.547791,645.991211 492.376373,656.078308 482.095215,666.052368   C481.033203,667.082703 480.082031,668.773193 478.018707,668.431946   C477.515991,666.316956 479.178711,665.398987 480.272247,664.314453   C489.138214,655.521484 497.975342,646.696289 507.000946,638.068909   C510.963379,634.281311 512.934143,630.241516 512.795471,624.486389   C512.390198,607.674255 512.640808,590.846802 512.586304,574.025513   C512.575378,570.646790 513.837280,568.080139 516.274353,565.675110   C555.398071,527.066040 594.415833,488.351379 632.911987,449.112488   C656.011414,425.567413 679.303894,402.210388 702.674500,378.934326   C706.250244,375.372986 707.827454,371.787231 707.753174,366.680145   C707.474915,347.523102 707.746277,328.358673 707.585388,309.198914   C707.549072,304.873688 708.814087,301.614563 711.900757,298.569000   C729.209900,281.490967 746.380066,264.272095 763.858032,246.856400  z" class="breathing-path" stroke-opacity="0.02"/>
<path fill="#000000" opacity="1.000000" stroke="black" d=" M702.235352,391.236206   C756.459412,337.179840 810.437134,283.377197 864.796265,229.194366   C865.390625,231.837082 863.753357,232.931183 862.623962,234.099716   C835.304138,262.366852 807.455688,290.107849 779.516235,317.761169   C759.271057,337.798950 739.294312,358.107605 719.157715,378.255310   C668.053101,429.388184 616.941223,480.513855 565.794312,531.604431   C556.135620,541.252441 546.830566,551.357483 536.390259,560.089417   C527.114136,567.847717 525.124207,577.297180 525.391479,588.357422   C525.765320,603.827942 525.662170,619.309631 525.877075,634.784912   C525.918152,637.742615 524.664978,639.853088 522.690308,641.795105   C512.836609,651.485840 502.202393,660.531311 493.408386,671.105713   C486.006439,680.006287 477.681274,682.682800 466.869629,681.508362   C461.323456,680.905884 455.657867,681.402649 449.615082,681.402649   C450.630554,678.365356 452.531525,679.025452 453.972046,679.003174   C461.634644,678.884766 469.301422,678.730835 476.961182,678.878601   C480.207642,678.941162 482.613953,678.028564 484.916809,675.689697   C495.783356,664.653503 506.702789,653.664856 517.818176,642.880676   C521.541748,639.268066 523.299927,635.448364 523.194946,630.158569   C522.907349,615.667542 523.924622,601.106567 522.861023,586.688599   C521.949402,574.330261 526.561401,565.916870 535.191162,557.555908   C572.515625,521.393738 609.202820,484.577301 645.690369,447.564545   C664.284180,428.703033 683.212158,410.170929 702.235352,391.236206  z" class="breathing-path" stroke-opacity="0.02"/>
<path fill="#000000" opacity="1.000000" stroke="black" d=" M875.546997,899.473267   C878.348511,902.962524 882.289612,904.927551 884.349121,909.352661   C881.728699,908.987244 879.999451,907.604248 878.516785,906.091492   C847.648804,874.598572 816.835266,843.052368 785.979736,811.547302   C761.277710,786.325256 736.527039,761.150818 711.816040,735.937683   C707.737183,731.775940 703.678040,727.589844 699.753906,723.283691   C697.792297,721.131104 695.575134,720.280884 692.697876,720.346313   C687.203918,720.471313 681.685425,720.627441 676.213074,720.249817   C671.737183,719.940979 668.343750,721.390686 665.879272,724.925903   C660.603271,732.494080 653.474365,735.826782 644.405090,734.099121   C631.267944,731.596619 621.108215,736.042908 613.261658,746.566650   C612.474365,747.622559 611.243835,748.347778 610.455566,749.403137   C603.620972,758.552917 594.315796,755.056580 585.590454,754.466187   C587.631042,752.510498 590.048218,753.093628 592.397827,753.443481   C598.550903,754.359802 603.713196,753.091858 608.115906,748.151306   C612.645996,743.067871 617.903320,738.637512 622.754272,733.832397   C624.530884,732.072571 626.414612,731.277954 628.976196,731.370911   C635.465393,731.606201 641.991211,731.231567 648.451355,731.744324   C653.860901,732.173584 658.073364,730.428345 660.976440,726.192139   C665.849670,719.080994 672.466919,718.061584 680.669189,717.449890   C693.803284,716.470276 702.202820,721.560059 711.061951,730.842896   C750.953674,772.642944 791.725769,813.602417 832.154785,854.890137   C846.581848,869.623535 860.936340,884.428101 875.546997,899.473267  z" class="breathing-path" stroke-opacity="0.02"/>
<path fill="#000000" opacity="1.000000" stroke="black" d=" M654.025024,403.022430   C643.331360,413.797058 632.849365,424.283051 622.442322,434.842987   C612.061340,445.376373 601.755493,455.983917 591.037659,466.946777   C589.087585,463.862244 590.684204,462.701752 591.861267,461.524384   C608.585022,444.796478 625.334290,428.094116 642.060059,411.368225   C650.539001,402.889130 658.921936,394.312897 667.481323,385.916168   C669.950012,383.494385 670.818970,380.858002 670.808838,377.468384   C670.741760,354.971527 670.903015,332.473755 670.785034,309.977386   C670.762451,305.665436 671.984924,302.407135 675.068726,299.333344   C691.584534,282.871216 707.937683,266.245850 724.345215,249.675156   C726.850525,247.144989 728.952942,244.497833 728.768799,240.565659   C728.642761,237.873444 730.487427,235.965073 732.266602,234.169128   C756.883362,209.320663 781.503967,184.475983 806.126709,159.633362   C806.713318,159.041443 807.328735,158.466476 808.574524,159.022797   C808.939514,161.267807 807.041626,162.387817 805.758972,163.680679   C783.239807,186.379852 760.686340,209.044968 738.130615,231.707855   C734.490234,235.365555 730.508240,238.696198 731.022095,244.759140   C731.231445,247.228973 728.851868,248.787186 727.241760,250.418442   C712.614319,265.237762 698.401733,280.512848 683.091064,294.592529   C675.108948,301.932831 672.895081,309.700439 673.259338,320.062622   C673.972351,340.345734 673.376099,360.674103 673.390808,380.983643   C673.392456,383.226868 672.334900,384.662720 670.851074,386.126892   C665.277710,391.626556 659.789551,397.212524 654.025024,403.022430  z" class="breathing-path" stroke-opacity="0.02"/>
<path fill="#000000" opacity="1.000000" stroke="black" d=" M582.619995,495.628693   C576.760071,500.416412 572.371582,506.330292 566.402771,510.464111   C566.063965,510.147919 565.725159,509.831696 565.386353,509.515503   C569.667419,505.115387 573.762329,500.512177 578.280945,496.371368   C582.951477,492.091400 587.201477,487.560211 590.865784,481.174835   C591.792419,488.657898 585.932800,491.252686 582.619995,495.628693  z" class="breathing-path" stroke-opacity="0.02"/>
</svg>
